<svg xmlns="http://www.w3.org/2000/svg" viewBox="0 0 48.65 65.13">
	<defs>
		<style>
			.cls-1{fill:#f2f2f2;}
		</style>
	</defs>
	<g id="Layer_2" data-name="Layer 2">
		<g id="Layer_3" data-name="Layer 3">
			<path class="cls-1" d="M2.21,40.64a3,3,0,0,1-1-1A5.59,5.59,0,0,1,.51,38,14.2,14.2,0,0,1,.12,35.6C0,34.63,0,33.43,0,32s.05-2.44.14-3.41a16.35,16.35,0,0,1,.4-2.47,5.45,5.45,0,0,1,.7-1.66,2.25,2.25,0,0,1,1-.89L44.92.69a5.45,5.45,0,0,1,2-.69A1.26,1.26,0,0,1,48,.58a4,4,0,0,1,.52,1.94c.06.9.09,2.13.08,3.7,0,1.4,0,2.55-.1,3.45a11.34,11.34,0,0,1-.37,2.22,3.55,3.55,0,0,1-.66,1.34,2.82,2.82,0,0,1-.93.69L10.52,31.57l-.2.25L46.47,50.76a4.27,4.27,0,0,1,.91.77A3.68,3.68,0,0,1,48,52.88a11.08,11.08,0,0,1,.35,2.31c.06.94.09,2.12.09,3.53,0,1.57,0,2.83-.11,3.77a4.86,4.86,0,0,1-.5,2.07,1.12,1.12,0,0,1-1.16.56,6.1,6.1,0,0,1-2-.73Z" />
		</g>
	</g>
</svg>
