<svg xmlns="http://www.w3.org/2000/svg" viewBox="0 0 37.55 28.62">
	<defs>
		<style>
			.cls-1{fill:#f2f2f2;stroke:#b2b4bb;stroke-miterlimit:10;}
		</style>
	</defs>
	<g id="Layer_2" data-name="Layer 2">
		<g id="Layer_3" data-name="Layer 3">
			<path class="cls-1" d="M36.67.62A20,20,0,0,0,32.79.57,2.57,2.57,0,0,0,31.9,1a2.33,2.33,0,0,0-.51.53L18.83,22.42l-.06,0-.05,0L6.16,1.48A2.61,2.61,0,0,0,5.64,1,2.41,2.41,0,0,0,4.75.57,19.91,19.91,0,0,0,.88.62a.61.61,0,0,0-.37.67A3.26,3.26,0,0,0,1,2.45L16.75,27.07a1.79,1.79,0,0,0,.65.59,4,4,0,0,0,1.07.4l.3.05.3-.05a4.21,4.21,0,0,0,1.08-.4,1.88,1.88,0,0,0,.65-.59L36.55,2.45A3.32,3.32,0,0,0,37,1.29.63.63,0,0,0,36.67.62Z" />
		</g>
	</g>
</svg>
