<svg xmlns="http://www.w3.org/2000/svg" viewBox="0 0 612.4 390.8">
	<defs>
		<style>
			.cls-1{fill:#323335;}.cls-2{fill:#424242;}.cls-3{fill:#22a8ce;}.cls-4{font-size:104.83px;}.cls-4,.cls-5{fill:#b2b4bb;font-family:Roboto-Black, Roboto;font-weight:800;}.cls-5{font-size:50px;}
		</style>
	</defs>
	<g id="Layer_2" data-name="Layer 2">
		<g id="Layer_3" data-name="Layer 3">
			<path class="cls-1" d="M450.37,0s-20.21,26.9-71.72,54.63l32.42-42.78L350,44a117.14,117.14,0,0,1-6.54,219.71c15,10.39,28.25,18,33.06,16,4.21-1.7,2.1-10.47-2.7-21.61l1.24-.06C569.88,245.25,450.37,0,450.37,0Z" />
			<path class="cls-1" d="M189.05,152.67A117.15,117.15,0,0,1,262.4,44L201.33,11.85l32.41,42.78C182.23,26.9,162,0,162,0S42.52,245.25,237.34,258.08c.41,0,.82,0,1.24.06-4.81,11.14-6.91,19.91-2.71,21.61,4.81,1.94,18.12-5.63,33.07-16A117.17,117.17,0,0,1,189.05,152.67Z" />
			<path class="cls-2" d="M306.2,269.82a116.85,116.85,0,0,1-42.94-8.16,7.22,7.22,0,0,0,1.79,4.83l41.15,39.56,41.14-39.56a7.18,7.18,0,0,0,1.8-4.83A116.89,116.89,0,0,1,306.2,269.82Z" />
			<circle class="cls-3" cx="306.2" cy="152.67" r="100.36" />
			<circle class="cls-2" cx="306.2" cy="152.67" r="67.14" />
			<text class="cls-4" transform="translate(279.5 187.41)">
				?
			</text>
			<text class="cls-5" transform="translate(40.44 374.27)">
				Something went wrong!
			</text>
		</g>
	</g>
</svg>
