<svg xmlns="http://www.w3.org/2000/svg" viewBox="0 0 32.37 24.71">
	<defs>
		<style>
			.cls-1{fill:#f2f2f2;stroke:#b2b4bb;stroke-miterlimit:10;}
		</style>
	</defs>
	<g id="Layer_2" data-name="Layer 2">
		<g id="Layer_3" data-name="Layer 3">
			<path class="cls-1" d="M31.54,24.1a16.66,16.66,0,0,1-3.32,0,2.07,2.07,0,0,1-.77-.32,2.14,2.14,0,0,1-.44-.46l-10.78-18-.05,0,0,0-10.79,18a1.92,1.92,0,0,1-.44.46,2,2,0,0,1-.76.32,16.65,16.65,0,0,1-3.32,0,.51.51,0,0,1-.32-.57,2.94,2.94,0,0,1,.41-1L14.45,1.4A1.49,1.49,0,0,1,15,.9a3.35,3.35,0,0,1,.93-.35l.25,0,.26,0a3.16,3.16,0,0,1,.92.35,1.45,1.45,0,0,1,.56.5L31.44,22.53a2.81,2.81,0,0,1,.42,1A.53.53,0,0,1,31.54,24.1Z" />
		</g>
	</g>
</svg>
