<?xml version="1.0"?>
<svg xmlns="http://www.w3.org/2000/svg" viewBox="0 0 66.95 66.95">
	<defs>
		<style>
			.cls-1{fill:#50525D;}.cls-2{fill:#04070e;}
		</style>
	</defs>
	<g id="Layer_2" data-name="Layer 2">
		<g id="Layer_3" data-name="Layer 3">
			<circle class="cls-1" cx="33.48" cy="33.48" r="33.48" />
			<circle class="cls-2" cx="33.48" cy="33.48" r="29.88" />
			<path class="cls-1" d="M33.47,23.27c.33-.48.63-.94,1-1.37a11,11,0,0,1,4.74-3.75,9.25,9.25,0,0,1,8.46.7,11.33,11.33,0,0,1,5.48,7.88,14.44,14.44,0,0,1-.78,8,24.16,24.16,0,0,1-4.83,7.72A43.74,43.74,0,0,1,38.56,50c-1.59,1-3.25,2-4.88,3a.33.33,0,0,1-.38,0,61.06,61.06,0,0,1-9.72-6.51A33.73,33.73,0,0,1,16.77,39a19,19,0,0,1-2.95-7.15,12.61,12.61,0,0,1,1.76-9.44,10.43,10.43,0,0,1,7.21-4.83,9.34,9.34,0,0,1,7.68,2.16,13.64,13.64,0,0,1,2.85,3.3C33.36,23.12,33.41,23.18,33.47,23.27Z" />
		</g>
	</g>
</svg>
