<svg xmlns="http://www.w3.org/2000/svg" viewBox="0 0 374.04 317">
	<defs>
		<style>
			.cls-1{font-size:61px;font-family:Roboto-Black, Roboto;font-weight:800;}.cls-1,.cls-4{fill:#f2f2f2;}.cls-2,.cls-3{font-family:Roboto-Light, Roboto;font-weight:300;}.cls-2{letter-spacing:-0.01em;}.cls-5{fill:#22a8ce;}
		</style>
	</defs>
	<g id="Layer_2" data-name="Layer 2">
		<g id="Layer_2-2" data-name="Layer 2">
			<path class="cls-4" d="M336.45,0S315.5,27.88,262.12,56.62l33.59-44.33L232.42,45.62a121.41,121.41,0,0,1-6.78,227.72c15.49,10.77,29.29,18.62,34.27,16.6,4.36-1.76,2.17-10.85-2.8-22.39l1.28-.06C460.31,254.19,336.45,0,336.45,0Z" />
			<path class="cls-4" d="M65.6,158.23a121.43,121.43,0,0,1,76-112.61L78.33,12.29l33.6,44.33C58.54,27.88,37.6,0,37.6,0S-86.27,254.19,115.65,267.49l1.29.06c-5,11.54-7.16,20.63-2.81,22.39,5,2,18.78-5.83,34.27-16.6A121.45,121.45,0,0,1,65.6,158.23Z" />
			<path class="cls-4" d="M187,279.65a120.93,120.93,0,0,1-44.5-8.46,7.44,7.44,0,0,0,1.86,5l42.64,41,42.65-41a7.54,7.54,0,0,0,1.86-5A121,121,0,0,1,187,279.65Z" />
			<circle class="cls-4" cx="187.02" cy="158.23" r="104.01" />
			<circle class="cls-5" cx="187.02" cy="158.23" r="69.59" />
			<circle class="cls-4" cx="213.68" cy="133.85" r="14.64" />
		</g>
	</g>
</svg>
