<svg xmlns="http://www.w3.org/2000/svg" viewBox="0 0 121.34 121.34">
	<defs>
		<style>
			.cls-1{fill:#f2f2f2;}.cls-2{fill:#22a8ce;}
		</style>
	</defs>
	<g id="Layer_2" data-name="Layer 2">
		<g id="Layer_3" data-name="Layer 3">
			<circle class="cls-1" cx="60.67" cy="60.67" r="60.67" />
			<circle class="cls-2" cx="60.67" cy="60.67" r="54.02" />
			<rect class="cls-1" x="27.32" y="38.97" width="69.06" height="64.26" rx="12" />
			<path class="cls-1" d="M81.34,98.29h-39a10.12,10.12,0,0,1-10.1-10.1V44.79a10.13,10.13,0,0,1,10.1-10.1l18.2-7.82,20.78,7.82a10.14,10.14,0,0,1,10.1,10.1v43.4A10.13,10.13,0,0,1,81.34,98.29Z" />
			<path class="cls-1" d="M61.93,26.87,21.53,50.39c-1.22.7-3.48-.41-4.18-1.63l-1.57-2.7a2.56,2.56,0,0,1,.94-3.49l44-24.32c1.21-.7-.07,1.21.63,2.43l1.56,2.7A2.57,2.57,0,0,1,61.93,26.87Z" />
			<path class="cls-1" d="M60.56,26.87l41.92,24.4a2.57,2.57,0,0,0,3.49-.93l1.48-2.57a2.57,2.57,0,0,0-.93-3.49l-44.93-26C60.37,17.56,60,19.83,59.28,21l.34,2.34A2.56,2.56,0,0,0,60.56,26.87Z" />
			<rect class="cls-2" x="49.73" y="74.59" width="23.31" height="29.5" />
		</g>
	</g>
</svg>
