<svg xmlns="http://www.w3.org/2000/svg" viewBox="0 0 380.05 313.02">
	<defs>
		<style>
			.cls-1{fill:#f2f2f2;}.cls-2{fill:#04070e;}.cls-3{fill:#22a8ce;}
		</style>
	</defs>
	<g id="Layer_2" data-name="Layer 2">
		<g id="Layer_2-2" data-name="Layer 2">
			<polygon class="cls-1" points="159.2 55.26 77.3 12.13 136.5 90.25 159.2 55.26" />
			<path class="cls-1" d="M217.36,99.51c17.57-20.54-34-7.7-93.29-36.64C61.27,32.22,37.1,0,37.1,0s-122.23,250.84,77,264c66.47,4.37,105.19-61.71,105.19-61.71Z" />
			<polygon class="cls-1" points="220.85 55.26 302.75 12.13 243.55 90.25 220.85 55.26" />
			<path class="cls-1" d="M162.69,99.51c-17.57-20.54,34-7.7,93.29-36.64,62.79-30.65,87-62.87,87-62.87s122.24,250.84-77,264c-66.47,4.37-105.19-61.71-105.19-61.71Z" />
			<path class="cls-1" d="M148.81,204.6s-49.63,76.09-36.18,81.53,91.89-61.91,91.89-61.91Z" />
			<path class="cls-1" d="M231.24,204.6s49.63,76.09,36.18,81.53-91.9-61.91-91.9-61.91Z" />
			<path class="cls-1" d="M230.85,260.48,190,223.9,149.2,260.48c-3.64,2.55-4.17,9.11-1.26,12.09L190,313l42.09-40.45C235,269.59,234.49,263,230.85,260.48Z" />
			<circle class="cls-2" cx="190.02" cy="156.15" r="119.82" />
			<circle class="cls-1" cx="190.02" cy="156.15" r="102.65" />
			<circle class="cls-3" cx="190.02" cy="156.15" r="68.67" />
			<circle class="cls-1" cx="216.34" cy="132.09" r="14.45" />
		</g>
	</g>
</svg>
