<svg xmlns="http://www.w3.org/2000/svg" viewBox="0 0 27.54 20.57">
	<defs>
		<style>
			.cls-1{fill:#b2b4bb;}
		</style>
	</defs>
	<g id="Layer_2" data-name="Layer 2">
		<g id="Layer_3" data-name="Layer 3">
			<path class="cls-1" d="M.32,1.66A2.66,2.66,0,0,1,0,.82.48.48,0,0,1,.24.33,2.09,2.09,0,0,1,1.12.12c.4,0,.93,0,1.59,0s1.1,0,1.5,0a3.88,3.88,0,0,1,1,.15,1.44,1.44,0,0,1,.57.27,1.55,1.55,0,0,1,.33.39l8,15.29.1-.09L21.66.87A1.11,1.11,0,0,1,22,.48,1.53,1.53,0,0,1,22.51.2a5.27,5.27,0,0,1,.95-.15c.37,0,.86,0,1.46,0s1.18,0,1.56,0a1.61,1.61,0,0,1,.82.22.52.52,0,0,1,.24.48,2.13,2.13,0,0,1-.29.84l-9.68,18a1,1,0,0,1-.38.43,2.27,2.27,0,0,1-.7.29,6.4,6.4,0,0,1-1,.17q-.62.06-1.44.06c-.59,0-1.1,0-1.51-.05a7,7,0,0,1-1-.16,2.75,2.75,0,0,1-.69-.29,1.28,1.28,0,0,1-.41-.43Z" />
		</g>
	</g>
</svg>
